<svg width="1571" height="1693" viewBox="0 0 1571 1693" fill="none" xmlns="http://www.w3.org/2000/svg">
<ellipse opacity="0.59" rx="42.6039" ry="47.84" transform="matrix(-0.999915 -0.0130012 -0.0105324 0.999945 1249.59 624.181)" fill="#FAC0BD"/>
<g opacity="0.59">
<ellipse rx="67.2194" ry="75.4808" transform="matrix(-0.999915 -0.0130012 -0.0105324 0.999945 1042.85 1546.85)" fill="#FAC0BD"/>
<path d="M1036.83 1534.51C1036.4 1575 1065.62 1607.93 1101.77 1608.4C1137.92 1608.87 1167.83 1576.7 1168.25 1536.22C1168.68 1495.74 1139.46 1462.8 1103.31 1462.33C1067.16 1461.86 1037.25 1494.03 1036.83 1534.51Z" stroke="#A8E58E" stroke-width="3"/>
<path d="M1028.19 1546.66C1027.76 1587.15 1056.98 1620.08 1093.13 1620.55C1129.28 1621.02 1159.19 1588.86 1159.62 1548.37C1160.04 1507.89 1130.82 1474.96 1094.67 1474.49C1058.52 1474.02 1028.61 1506.18 1028.19 1546.66Z" stroke="#A8E58E" stroke-width="3"/>
</g>
<g opacity="0.59">
<ellipse rx="46.934" ry="52.7023" transform="matrix(-0.999915 -0.0130012 -0.0105324 0.999945 1081.72 1190.8)" fill="#C4EDB2"/>
</g>
<g opacity="0.59">
<ellipse rx="46.934" ry="52.7023" transform="matrix(-0.999915 -0.0130012 -0.0105324 0.999945 340.835 79.5531)" fill="#C4EDB2"/>
</g>
<g opacity="0.59">
<ellipse rx="67.2194" ry="75.4808" transform="matrix(-0.999915 -0.0130012 -0.0105324 0.999945 1306.63 1393.06)" fill="#C4EDB2"/>
</g>
<g opacity="0.59">
<path d="M979.284 370.503C978.845 412.188 1008.58 446.371 1045.7 446.854C1082.82 447.337 1113.27 413.936 1113.71 372.251C1114.15 330.566 1084.41 296.383 1047.29 295.9C1010.17 295.418 979.723 328.819 979.284 370.503Z" fill="#8A9FFF"/>
<path d="M1027.24 403.208C1026.81 443.693 1056.03 476.626 1092.18 477.096C1128.34 477.566 1158.24 445.402 1158.67 404.917C1159.09 364.432 1129.87 331.499 1093.72 331.029C1057.57 330.559 1027.67 362.723 1027.24 403.208Z" stroke="#A8E58E" stroke-width="3"/>
<path d="M1018.6 415.363C1018.18 455.848 1047.4 488.781 1083.55 489.251C1119.7 489.721 1149.6 457.557 1150.03 417.072C1150.46 376.588 1121.24 343.655 1085.09 343.185C1048.93 342.715 1019.03 374.879 1018.6 415.363Z" stroke="#A8E58E" stroke-width="3"/>
</g>
<g opacity="0.59">
<path d="M1385.08 840.933C1351.7 823.892 1312.34 839.71 1297.16 876.262C1281.99 912.815 1296.75 956.26 1330.13 973.301C1363.51 990.341 1402.87 974.524 1418.04 937.971C1433.22 901.419 1418.46 857.973 1385.08 840.933Z" fill="#8A9FFF"/>
<path d="M1339.69 875.28C1307.55 858.873 1269.33 874.414 1254.44 910.293C1239.54 946.173 1253.75 988.472 1285.89 1004.88C1318.03 1021.29 1356.24 1005.75 1371.13 969.866C1386.03 933.987 1371.83 891.687 1339.69 875.28Z" stroke="#A8E58E" stroke-width="3"/>
<path d="M1333.34 861.887C1301.2 845.48 1262.99 861.021 1248.09 896.901C1233.2 932.78 1247.4 975.08 1279.54 991.487C1311.68 1007.89 1349.9 992.352 1364.79 956.473C1379.68 920.594 1365.48 878.294 1333.34 861.887Z" stroke="#A8E58E" stroke-width="3"/>
</g>
<g opacity="0.59">
<ellipse rx="67.2194" ry="75.4808" transform="matrix(-0.999915 -0.0130012 -0.0105324 0.999945 1443.25 1616.12)" fill="#FAC0BD"/>
<path d="M1437.22 1603.78C1436.8 1644.26 1466.02 1677.2 1502.17 1677.67C1538.32 1678.14 1568.23 1645.97 1568.65 1605.49C1569.08 1565 1539.86 1532.07 1503.71 1531.6C1467.56 1531.13 1437.65 1563.29 1437.22 1603.78Z" stroke="#A8E58E" stroke-width="3"/>
<path d="M1428.59 1615.93C1428.16 1656.42 1457.38 1689.35 1493.53 1689.82C1529.68 1690.29 1559.59 1658.13 1560.01 1617.64C1560.44 1577.16 1531.22 1544.22 1495.07 1543.75C1458.92 1543.28 1429.01 1575.45 1428.59 1615.93Z" stroke="#A8E58E" stroke-width="3"/>
</g>
<g opacity="0.59">
<ellipse rx="67.2194" ry="75.4808" transform="matrix(-0.999915 -0.0130012 -0.0105324 0.999945 1435.53 246.643)" fill="#FAC0BD"/>
<path d="M1429.5 234.299C1429.07 274.784 1458.29 307.717 1494.44 308.187C1530.59 308.657 1560.5 276.493 1560.93 236.008C1561.35 195.523 1532.13 162.59 1495.98 162.12C1459.83 161.65 1429.93 193.814 1429.5 234.299Z" stroke="#A8E58E" stroke-width="3"/>
<path d="M1420.86 246.452C1420.44 286.937 1449.66 319.87 1485.81 320.34C1521.96 320.81 1551.86 288.646 1552.29 248.161C1552.72 207.676 1523.5 174.743 1487.34 174.273C1451.19 173.803 1421.29 205.968 1420.86 246.452Z" stroke="#A8E58E" stroke-width="3"/>
</g>
<path opacity="0.59" d="M1014.37 832.194C1013.93 873.878 1043.67 908.062 1080.79 908.544C1117.91 909.027 1148.36 875.626 1148.8 833.942C1149.24 792.257 1119.5 758.074 1082.38 757.591C1045.26 757.108 1014.81 790.509 1014.37 832.194Z" fill="#8A9FFF"/>
<path opacity="0.59" d="M458.131 1313.77C457.692 1355.46 487.428 1389.64 524.55 1390.12C561.671 1390.61 592.119 1357.21 592.558 1315.52C592.997 1273.84 563.261 1239.65 526.14 1239.17C489.018 1238.69 458.57 1272.09 458.131 1313.77Z" fill="#8A9FFF"/>
<ellipse opacity="0.59" rx="42.6039" ry="47.8401" transform="matrix(-0.999865 -0.0166484 -0.0138429 0.999901 463.078 609.638)" fill="#FAC0BD"/>
<g opacity="0.59">
<ellipse rx="67.2195" ry="75.4808" transform="matrix(-0.999865 -0.0166484 -0.0138429 0.999901 253.293 1531.55)" fill="#FAC0BD"/>
<path d="M247.305 1519.19C246.745 1559.67 275.856 1592.71 312.005 1593.31C348.154 1593.91 378.166 1561.86 378.726 1521.38C379.287 1480.89 350.176 1447.85 314.027 1447.25C277.878 1446.65 247.866 1478.7 247.305 1519.19Z" stroke="#A8E58E" stroke-width="3"/>
<path d="M238.628 1531.31C238.068 1571.79 267.179 1604.83 303.328 1605.43C339.476 1606.03 369.489 1573.98 370.049 1533.5C370.61 1493.01 341.499 1459.97 305.35 1459.37C269.201 1458.77 239.188 1490.82 238.628 1531.31Z" stroke="#A8E58E" stroke-width="3"/>
</g>
<g opacity="0.59">
<ellipse rx="46.934" ry="52.7023" transform="matrix(-0.999865 -0.0166484 -0.0138429 0.999901 293.341 1175.65)" fill="#C4EDB2"/>
</g>
<g opacity="0.59">
<ellipse rx="67.2195" ry="75.4808" transform="matrix(-0.999865 -0.0166484 -0.0138429 0.999901 813.705 1153.32)" fill="#C4EDB2"/>
</g>
<g opacity="0.59">
<ellipse rx="67.2195" ry="75.4808" transform="matrix(-0.999865 -0.0166484 -0.0138429 0.999901 768.982 499.384)" fill="#C4EDB2"/>
</g>
<g opacity="0.59">
<ellipse rx="67.2195" ry="75.4808" transform="matrix(-0.999865 -0.0166484 -0.0138429 0.999901 1182.94 80.1658)" fill="#C4EDB2"/>
</g>
<g opacity="0.59">
<path d="M193.618 354.977C193.041 396.66 222.664 430.952 259.784 431.57C296.903 432.188 327.462 398.898 328.039 357.216C328.616 315.533 298.993 281.241 261.873 280.623C224.754 280.005 194.195 313.295 193.618 354.977Z" fill="#8A9FFF"/>
<path d="M241.466 387.857C240.905 428.34 270.016 461.379 306.165 461.981C342.314 462.583 372.327 430.528 372.887 390.045C373.448 349.562 344.336 316.523 308.188 315.921C272.039 315.319 242.026 347.374 241.466 387.857Z" stroke="#A8E58E" stroke-width="3"/>
<path d="M232.788 399.981C232.227 440.464 261.338 473.503 297.487 474.105C333.636 474.707 363.648 442.652 364.209 402.169C364.769 361.686 335.658 328.647 299.509 328.045C263.36 327.443 233.348 359.498 232.788 399.981Z" stroke="#A8E58E" stroke-width="3"/>
</g>
<g opacity="0.59">
<path d="M597.852 826.882C564.528 809.72 525.115 825.394 509.821 861.891C494.526 898.388 509.142 941.887 542.466 959.049C575.79 976.211 615.203 960.538 630.498 924.041C645.792 887.544 631.176 844.045 597.852 826.882Z" fill="#8A9FFF"/>
<path d="M552.348 861.064C520.262 844.54 481.997 859.942 466.984 895.767C451.972 931.591 466.035 973.943 498.12 990.467C530.205 1006.99 568.47 991.589 583.483 955.764C598.496 919.94 584.433 877.588 552.348 861.064Z" stroke="#A8E58E" stroke-width="3"/>
<path d="M546.046 847.649C513.961 831.125 475.696 846.527 460.683 882.351C445.67 918.176 459.734 960.528 491.819 977.052C523.904 993.576 562.169 978.174 577.182 942.349C592.195 906.525 578.131 864.173 546.046 847.649Z" stroke="#A8E58E" stroke-width="3"/>
</g>
<g opacity="0.59">
<ellipse rx="67.2195" ry="75.4808" transform="matrix(-0.999865 -0.0166484 -0.0138429 0.999901 653.46 1602.28)" fill="#FAC0BD"/>
<path d="M647.473 1589.91C646.912 1630.4 676.024 1663.44 712.172 1664.04C748.321 1664.64 778.334 1632.59 778.894 1592.1C779.455 1551.62 750.343 1518.58 714.195 1517.98C678.046 1517.38 648.033 1549.43 647.473 1589.91Z" stroke="#A8E58E" stroke-width="3"/>
<path d="M638.796 1602.04C638.235 1642.52 667.346 1675.56 703.495 1676.16C739.644 1676.76 769.656 1644.71 770.217 1604.22C770.777 1563.74 741.666 1530.7 705.517 1530.1C669.368 1529.5 639.356 1561.55 638.796 1602.04Z" stroke="#A8E58E" stroke-width="3"/>
</g>
<g opacity="0.59">
<ellipse rx="67.2195" ry="75.4808" transform="matrix(-0.999865 -0.0166484 -0.0138429 0.999901 650.269 232.78)" fill="#FAC0BD"/>
<ellipse rx="67.2195" ry="75.4808" transform="matrix(-0.999865 -0.0166484 -0.0138429 0.999901 857.384 769.03)" fill="#FAC0BD"/>
<ellipse rx="67.2195" ry="75.4808" transform="matrix(-0.999865 -0.0166484 -0.0138429 0.999901 71.0677 638.025)" fill="#FAC0BD"/>
<path d="M644.282 220.414C643.721 260.897 672.832 293.937 708.981 294.538C745.13 295.14 775.142 263.086 775.703 222.603C776.263 182.12 747.152 149.08 711.003 148.478C674.854 147.877 644.842 179.931 644.282 220.414Z" stroke="#A8E58E" stroke-width="3"/>
<path d="M635.604 232.536C635.044 273.019 664.155 306.059 700.304 306.661C736.453 307.262 766.465 275.208 767.026 234.725C767.586 194.242 738.475 161.202 702.326 160.6C666.177 159.999 636.165 192.053 635.604 232.536Z" stroke="#A8E58E" stroke-width="3"/>
</g>
<path opacity="0.59" d="M227.175 816.792C226.598 858.475 256.222 892.766 293.341 893.384C330.46 894.002 361.019 860.713 361.596 819.03C362.173 777.347 332.55 743.056 295.431 742.438C258.311 741.819 227.752 775.109 227.175 816.792Z" fill="#8A9FFF"/>
</svg>
