<svg width="74" height="66" viewBox="0 0 74 66" fill="none" xmlns="http://www.w3.org/2000/svg">
<path d="M2.78397 28.0086C1.77241 37.5962 10.7821 42.2741 15.4134 43.4145C12.501 48.3725 13.4465 56.2558 15.8687 59.7849C16.9925 63.6352 26.4403 63.8733 30.8578 60.8088C34.3919 58.3572 41.6048 59.0129 44.3342 59.6618C48.1573 61.3385 53.5425 63.8237 57.8799 61.0119C63.3017 57.4971 62.3446 49.1975 60.9792 41.8837C72.1289 37.51 71.6066 27.0851 70.5059 24.0671C69.2051 20.5004 64.9517 15.5055 58.8451 17.3769C57.8441 2.27467 49.737 3.24133 48.5645 2.86414C47.4001 2.48953 40.1595 3.56309 36.7169 10.3441C33.3181 5.12599 31.4642 4.27179 28.1035 3.55152C26.6523 3.60028 24.7419 2.80351 19.5919 5.64267C14.4419 8.48182 15.048 16.3488 15.9145 19.6524C11.9592 18.4429 3.79552 18.4209 2.78397 28.0086Z" stroke="#1E4364" stroke-width="5"/>
<path d="M40.3015 16.9187C41.3611 12.8117 44.7557 10.2542 47.7141 10.8872C50.6726 11.5201 52.4613 15.1866 51.4017 19.2936C50.3421 23.4006 46.9475 25.958 43.9891 25.3251C41.0306 24.6922 39.2419 21.0257 40.3015 16.9187Z" fill="#1E4364" stroke="#1E4364"/>
<path d="M53.5762 27.3156C54.5409 25.656 55.9196 24.426 57.3473 23.7676C58.7751 23.1092 60.217 23.0338 61.3763 23.6083C62.5356 24.1829 63.2645 25.334 63.4594 26.7966C63.6543 28.2591 63.3061 29.9999 62.3414 31.6594C61.3767 33.3189 59.998 34.549 58.5703 35.2074C57.1425 35.8658 55.7006 35.9412 54.5413 35.3666C53.382 34.7921 52.6531 33.641 52.4582 32.1784C52.2633 30.7159 52.6115 28.9751 53.5762 27.3156Z" fill="#1E4364" stroke="#1E4364"/>
<path d="M20.6681 28.2725C19.613 26.6808 18.1685 25.5455 16.7068 24.9842C15.2451 24.4229 13.8018 24.4445 12.6765 25.0957C11.5513 25.747 10.8877 26.9449 10.7745 28.4179C10.6612 29.8907 11.1056 31.6048 12.1607 33.1965C13.2158 34.7882 14.6602 35.9235 16.1219 36.4848C17.5836 37.0461 19.027 37.0245 20.1522 36.3733C21.2774 35.722 21.941 34.5241 22.0542 33.0511C22.1675 31.5783 21.7232 29.8641 20.6681 28.2725Z" fill="#1E4364" stroke="#1E4364"/>
<path d="M33.5622 17.1452C32.2763 13.117 28.746 10.7921 25.8282 11.6225C22.9105 12.4529 21.3288 16.2325 22.6147 20.2607C23.9006 24.2889 27.4309 26.6138 30.3487 25.7834C33.2664 24.953 34.8481 21.1734 33.5622 17.1452Z" fill="#1E4364" stroke="#1E4364"/>
<path d="M20.2515 46.1587C18.7329 56.1253 24.0759 55.4795 26.9373 53.9107C38.0416 49.6107 47.7571 52.3523 49.1002 53.1662C50.4433 53.9801 57.7569 55.8206 55.2108 44.9842C52.6647 34.1479 40.2152 28.0622 35.8993 29.557C34.9758 29.5881 22.1498 33.7005 20.2515 46.1587Z" fill="#1E4364" stroke="#1E4364"/>
</svg>
