<svg width="34" height="32" viewBox="0 0 34 32" fill="none" xmlns="http://www.w3.org/2000/svg">
<path d="M4.02055 19.4682C5.19086 22.8834 9.01873 23.0537 10.7864 22.7119C10.5727 24.8541 12.1441 27.3825 13.5326 28.1997C14.5269 29.3303 17.8025 27.9238 18.8316 26.1876C19.6548 24.7987 22.2305 23.8858 23.2686 23.6765C24.8441 23.6441 27.083 23.6403 28.1245 22.0025C29.4265 19.9553 27.7854 17.2874 26.1602 15.0186C29.2893 11.7779 27.4609 8.31977 26.6062 7.46812C25.596 6.46164 23.348 5.43493 21.5513 7.03185C18.8187 2.06061 16.1933 3.6652 15.7318 3.72169C15.2734 3.77779 12.9618 5.28226 12.8549 8.12712C10.8645 6.89008 10.094 6.89184 8.82824 7.17632C8.33863 7.42134 7.55784 7.4515 6.24207 9.22647C4.92631 11.0014 6.37876 13.5777 7.19843 14.5632C5.65151 14.7751 2.85024 16.0529 4.02055 19.4682Z" stroke="#FFB6B2"/>
<path d="M15.4275 9.72717C15.1586 8.26196 15.8843 7.0862 16.7661 6.88768C17.648 6.68916 18.7306 7.45779 18.9996 8.92301C19.2686 10.3882 18.5429 11.564 17.661 11.7625C16.7792 11.961 15.6965 11.1924 15.4275 9.72717Z" fill="#FFB6B2" stroke="#FFB6B2"/>
<path d="M21.6297 11.2446C21.692 10.5895 21.9456 10.021 22.2812 9.63027C22.6169 9.23956 23.0078 9.05104 23.3751 9.06052C23.7425 9.07001 24.0957 9.27773 24.3556 9.68381C24.6154 10.0899 24.76 10.6687 24.6977 11.3238C24.6354 11.9789 24.3817 12.5475 24.0461 12.9382C23.7105 13.3289 23.3196 13.5174 22.9522 13.5079C22.5849 13.4984 22.2316 13.2907 21.9718 12.8846C21.7119 12.4785 21.5674 11.8997 21.6297 11.2446Z" fill="#FFB6B2" stroke="#FFB6B2"/>
<path d="M10.011 16.9965C9.4493 16.6537 8.8422 16.5159 8.32827 16.5503C7.81436 16.5847 7.42913 16.7846 7.21651 17.0843C7.00388 17.384 6.95839 17.7912 7.12764 18.2427C7.2969 18.6941 7.67352 19.1567 8.23522 19.4996C8.79692 19.8425 9.40402 19.9803 9.91795 19.9459C10.4319 19.9114 10.8171 19.7116 11.0297 19.4119C11.2423 19.1121 11.2878 18.7049 11.1186 18.2535C10.9493 17.8021 10.5727 17.3394 10.011 16.9965Z" fill="#FFB6B2" stroke="#FFB6B2"/>
<path d="M12.6129 11.1357C11.6014 10.0421 10.2252 9.91812 9.5377 10.5049C8.85018 11.0917 8.81636 12.4191 9.82787 13.5127C10.8394 14.6064 12.2155 14.7303 12.903 14.1435C13.5906 13.5567 13.6244 12.2293 12.6129 11.1357Z" fill="#FFB6B2" stroke="#FFB6B2"/>
<path d="M12.8786 22.8821C13.935 26.5059 15.664 25.4455 16.3964 24.4622C19.5216 21.2538 23.2851 20.6553 23.8741 20.7203C24.4632 20.7852 27.2609 20.2589 24.6738 16.9796C22.0866 13.7004 16.8571 13.5936 15.6145 14.7807C15.303 14.9366 11.558 18.3524 12.8786 22.8821Z" fill="#FFB6B2" stroke="#FFB6B2"/>
</svg>
